<svg data-v-fde0c5aa="" xmlns="http://www.w3.org/2000/svg" viewBox="0 0 300 300" class="iconLeft"><!----><defs data-v-fde0c5aa=""><!----></defs><rect data-v-fde0c5aa="" fill="transparent" x="0" y="0" width="300px" height="300px" class="logo-background-square"></rect><defs data-v-fde0c5aa=""><!----></defs><g data-v-fde0c5aa="" id="fe134b42-a09f-4f35-a05c-1d0303628175" fill="#000000" transform="matrix(1.8173092567879534,0,0,1.8173092567879534,90.24513176872938,137.2152290329557)"><path d="M6.90 9.73L3.22 9.73L3.22 5.80L5.59 5.87L6.06 6.79L6.45 6.65L6.45 4.17L5.96 4.03L5.59 4.97L3.22 5.03L3.22 1.47L6.64 1.47L7.08 3.14L7.78 3.00L7.78 0.70L0.63 0.70L0.49 1.33L1.82 1.60L1.82 9.60L0.49 10.01L0.49 10.50L8.08 10.50L8.08 8.26L7.35 8.11ZM16.04 9.63L16.04 5.15C16.44 4.63 17.00 4.24 17.74 4.24C18.45 4.24 19.15 4.68 19.15 5.74L19.15 9.66L18.14 10.08L18.14 10.50L21.41 10.50L21.55 9.87L20.41 9.63L20.41 5.74C20.41 3.95 19.49 3.09 18.35 3.09C17.46 3.09 16.48 3.67 15.86 4.55C15.53 3.56 14.90 3.09 14.06 3.09C13.27 3.09 12.31 3.49 11.68 4.27L11.68 3.12L9.20 3.46L9.27 4.07L10.43 4.30L10.43 9.66L9.21 10.08L9.21 10.50L12.53 10.50L12.67 9.83L11.68 9.63L11.68 4.96C12.05 4.52 12.80 4.24 13.40 4.24C14.17 4.24 14.78 4.68 14.78 5.74L14.78 9.66L13.78 10.08L13.78 10.50L16.98 10.50L17.12 9.87ZM28.69 6.75C28.69 5.00 28.18 3.11 25.69 3.11C24.08 3.11 22.32 4.35 22.32 6.83C22.32 9.25 23.88 10.63 25.73 10.63C26.67 10.63 27.66 10.28 28.57 9.56L28.27 9.03C27.55 9.49 26.87 9.72 26.21 9.72C24.79 9.72 23.72 8.60 23.72 6.75ZM23.76 5.99C23.80 4.62 24.77 3.86 25.65 3.86C26.49 3.86 27.29 4.52 27.29 5.99ZM35.38 3.32C35.08 3.19 34.78 3.12 34.45 3.12C33.63 3.12 32.91 3.60 32.28 4.27L32.28 3.12L29.81 3.46L29.88 4.07L31.04 4.30L31.04 9.66L29.82 10.08L29.82 10.50L33.43 10.50L33.57 9.83L32.28 9.63L32.28 4.96C32.66 4.52 33.39 4.24 33.99 4.24C34.06 4.24 34.20 4.24 34.27 4.26L34.65 5.32L35.38 5.19ZM39.24 8.25C40.64 8.25 42 7.62 42 5.75C42 5.25 41.92 4.82 41.73 4.44L43.48 4.48L43.48 3.51C43.13 3.54 42.80 3.57 42.49 3.58C41.94 3.63 41.37 3.65 41.10 3.65C40.61 3.26 39.96 3.08 39.23 3.08C37.69 3.08 36.26 3.86 36.26 5.75C36.26 6.87 36.83 7.53 37.66 7.91C37.03 8.29 36.67 8.85 36.67 9.34C36.67 9.77 36.85 10.14 37.23 10.40C36.48 10.89 36.01 11.38 36.01 12.10C36.01 13.37 37.11 13.96 38.79 13.96C40.77 13.96 42.98 12.92 42.98 11.12C42.98 10.33 42.50 9.69 41.31 9.65L38.68 9.65C38.07 9.63 37.77 9.39 37.77 9.07C37.77 8.72 38.02 8.39 38.35 8.15C38.64 8.22 38.95 8.25 39.24 8.25ZM39.27 7.48C38.12 7.48 37.66 6.72 37.66 5.71C37.66 4.66 38.15 3.82 39.13 3.82C40.14 3.82 40.60 4.70 40.60 5.75C40.60 6.76 40.21 7.48 39.27 7.48ZM40.64 10.84C41.72 10.84 42.03 11.06 42.03 11.61C42.03 12.43 40.71 13.15 39.40 13.15C38.16 13.15 37.30 12.80 37.30 11.72C37.30 11.37 37.45 11.02 37.76 10.65C38.11 10.78 38.51 10.84 38.98 10.84ZM46.68 3.12L44.21 3.46L44.28 4.03L45.42 4.24L45.42 9.66L44.18 10.08L44.18 10.50L47.59 10.50L47.73 9.83L46.68 9.63ZM44.95 1.08C45.16 1.47 45.50 1.81 45.89 2.02C46.30 1.78 46.63 1.46 46.87 1.05C46.66 0.64 46.34 0.32 45.93 0.11C45.51 0.35 45.19 0.67 44.95 1.08ZM62.48 5.63C62.48 2.94 60.84 0.70 57.60 0.70L53.61 0.70L53.47 1.33L54.80 1.60L54.80 9.60L53.47 10.01L53.47 10.50L57.60 10.50C60.73 10.50 62.48 8.32 62.48 5.63ZM57.36 1.47C59.93 1.47 61.01 3.11 61.01 5.63C61.01 8.15 59.67 9.73 57.36 9.73L56.20 9.73L56.20 1.47ZM69.17 3.32C68.88 3.19 68.57 3.12 68.25 3.12C67.42 3.12 66.71 3.60 66.08 4.27L66.08 3.12L63.60 3.46L63.67 4.07L64.83 4.30L64.83 9.66L63.62 10.08L63.62 10.50L67.23 10.50L67.37 9.83L66.08 9.63L66.08 4.96C66.46 4.52 67.19 4.24 67.79 4.24C67.86 4.24 68.00 4.24 68.07 4.26L68.45 5.32L69.17 5.19ZM73.57 9.84C71.82 9.84 71.27 8.27 71.27 6.73C71.27 5.28 71.88 3.85 73.37 3.85C75.12 3.85 75.67 5.42 75.67 6.96C75.67 8.41 75.07 9.84 73.57 9.84ZM73.36 3.08C71.12 3.08 69.87 5.00 69.87 6.89C69.87 8.76 71.06 10.61 73.58 10.61C75.82 10.61 77.07 8.69 77.07 6.80C77.07 4.93 75.88 3.08 73.36 3.08ZM85.15 5.67C85.11 3.88 84.36 3.09 83.02 3.09C82.25 3.09 81.23 3.50 80.60 4.27L80.60 3.12L78.12 3.46L78.19 4.07L79.35 4.30L79.35 9.66L78.13 10.08L78.13 10.50L81.52 10.50L81.66 9.83L80.60 9.63L80.60 4.96C80.96 4.52 81.80 4.24 82.54 4.24C83.44 4.24 83.89 4.55 83.89 5.95L83.89 9.66L82.81 10.08L82.81 10.50L86.13 10.50L86.27 9.87L85.15 9.63ZM93.41 6.75C93.41 5.00 92.90 3.11 90.41 3.11C88.80 3.11 87.04 4.35 87.04 6.83C87.04 9.25 88.61 10.63 90.45 10.63C91.39 10.63 92.39 10.28 93.30 9.56L92.99 9.03C92.27 9.49 91.59 9.72 90.93 9.72C89.52 9.72 88.44 8.60 88.44 6.75ZM88.48 5.99C88.52 4.62 89.49 3.86 90.37 3.86C91.21 3.86 92.01 4.52 92.01 5.99Z"></path></g><defs data-v-fde0c5aa=""><linearGradient data-v-fde0c5aa="" gradientTransform="rotate(25)" id="c91bebe7-b690-4f49-9299-e4bdbf963db3" x1="0%" y1="0%" x2="100%" y2="0%"><stop data-v-fde0c5aa="" offset="0%" stop-color="#32142D" stop-opacity="1"></stop><stop data-v-fde0c5aa="" offset="100%" stop-color="#32142D" stop-opacity="1"></stop></linearGradient></defs><g data-v-fde0c5aa="" id="7216150e-9f03-4474-b9a7-9582322c582c" stroke="none" fill="url(#c91bebe7-b690-4f49-9299-e4bdbf963db3)" transform="matrix(0.4050749214185034,0,0,0.4050749214185034,38.48999864407373,129.58422218348352)"><path d="M22.3 76.7c-1.8-.4-3.4 1.2-3 3 .2.9.9 1.6 1.8 1.8 1.8.4 3.4-1.2 3-3-.2-.9-.9-1.6-1.8-1.8zm-.6 3.7c-.7 0-1.3-.6-1.3-1.3s.6-1.3 1.3-1.3 1.3.6 1.3 1.3-.6 1.3-1.3 1.3zM22.1 22c-1.8-.4-3.4 1.2-3 3 .2.9.9 1.6 1.8 1.8 1.8.4 3.4-1.2 3-3-.2-.9-.9-1.6-1.8-1.8zm-.6 3.7c-.7 0-1.3-.6-1.3-1.3s.6-1.3 1.3-1.3 1.3.6 1.3 1.3-.6 1.3-1.3 1.3zM79.3 27c1.8.4 3.4-1.2 3-3-.2-.9-.9-1.6-1.8-1.8-1.8-.4-3.4 1.2-3 3 .2.9.9 1.6 1.8 1.8zm.6-3.6c.7 0 1.3.6 1.3 1.3 0 .7-.6 1.3-1.3 1.3s-1.3-.6-1.3-1.3c0-.7.6-1.3 1.3-1.3zM80 76.5c-1.8-.4-3.4 1.2-3 3 .2.9.9 1.6 1.8 1.8 1.8.4 3.4-1.2 3-3-.2-.9-.9-1.6-1.8-1.8zm-.6 3.6c-.7 0-1.3-.6-1.3-1.3s.6-1.3 1.3-1.3 1.3.6 1.3 1.3-.6 1.3-1.3 1.3z"></path><circle cx="79.9" cy="24.6" r="1.3"></circle><circle cx="21.5" cy="24.4" r="1.3"></circle><circle cx="21.7" cy="79.1" r="1.3"></circle><path d="M50.8 40.599999999999994h-.3c-5.8 0-16.6-9.4-20.9-13.4-1-.9-1.8-1.9-2.2-3.2-.5-1.2-1.2-2-1.8-2.6 1-1.3 2.6-2.9 5.1-4.5 5.9-3.8 9.4-7.8 10.5-9.9 1.2-2.1 1.1-3.1-1-3.2-2.1-.1-6.8 3.6-6.8 3.6s-6.3 5.3-10.5 12.5c-1.2-.2-2.9-.2-4.3 1-2.3 1.9-1.8 4.8-1 6.2-.7.6-1.5 1.2-2.5 1.8C9.1 33 5.7 37 4.5 39c-1.2 2.1-1.1 3.1 1 3.2 2.1.1 6.8-3.6 6.8-3.6s4.2-3.6 8.1-8.8c.8.4 2 1 3.5 1.7.4.2.7.4 1.1.6 3.1 2.6 6.9 8.6 9.7 13.5 2.2 3.8 2.2 8.6 0 12.4-2.8 5-6.8 11.3-9.9 13.9-.3.3-.7.5-1 .6-.7.3-1.2.6-1.7.8-4.2-6.4-9.6-11-9.6-11s-4.7-3.7-6.8-3.6c-2.1.1-2.2 1.1-1 3.2C5.9 64 9.3 68 15.2 71.8c1.7 1.1 3 2.2 4 3.2-.6.4-1 .7-1.3 1.1-.9 1-2.1 4.6.6 6.8 1.9 1.6 4.1 1.2 5.3.8.3-.1.6-.2.8-.4 4.1 5.9 8.9 10 8.9 10s4.7 3.7 6.8 3.6 2.2-1.1 1-3.2c-1.2-2.1-4.6-6.1-10.5-9.9-1.7-1.1-2.9-2.2-3.9-3.1.1-.2.2-.4.3-.7.5-1.3 1.3-2.4 2.3-3.3 4.3-4 15-13.4 20.9-13.4m-.1.1c5.8 0 17.1 9.4 21.5 13.4 1 .9 1.8 2.1 2.3 3.3.2.4.3.7.5 1-.9.9-2.1 1.9-3.6 2.8-5.9 3.8-9.4 7.8-10.5 9.9-1.2 2.1-1.1 3.1 1 3.2 2.1.1 6.8-3.6 6.8-3.6s4.8-4.1 8.8-9.9c.1.1.3.1.4.2 1.2.4 3.4.8 5.3-.8 2.7-2.2 1.5-5.8.6-6.8-.3-.3-.6-.6-1-.9 1-1.1 2.3-2.2 4.2-3.4C92.5 68 96 64 97.1 61.9c1.2-2.1 1.1-3.1-1-3.2-2.1-.1-6.8 3.6-6.8 3.6s-5.5 4.7-9.7 11.2c-.6-.3-1.3-.6-2.1-1-.4-.2-.7-.4-1.1-.6-3.1-2.6-6.9-8.6-9.7-13.5-2.2-3.8-2.2-8.6 0-12.4 2.8-5 6.8-11.3 9.9-13.9.3-.3.7-.5 1.1-.6 1.6-.7 2.7-1.2 3.5-1.7 3.9 5.3 8.1 8.8 8.1 8.8s4.7 3.7 6.8 3.6c2.1-.1 2.2-1.1 1-3.2-1.2-2.1-4.6-6.1-10.5-9.9-1-.6-1.8-1.3-2.5-1.9.7-1.5 1.2-4.3-1-6.2-1.4-1.2-3-1.2-4.2-1-4.4-7.1-10.7-12.4-10.7-12.4S63.5 3.9 61.4 4c-2.1.1-2.2 1.1-1 3.2 1.2 2.1 4.6 6.1 10.5 9.9 2.4 1.6 4 3.1 5.1 4.4-.6.5-1.3 1.4-1.8 2.5-.5 1.3-1.3 2.4-2.3 3.3-4.3 4-15.3 13.4-21.2 13.4m28.6-18.4c1.8-.4 3.4 1.2 3 3-.2.9-.9 1.6-1.8 1.8-1.8.4-3.4-1.2-3-3 .2-.9.9-1.6 1.8-1.8zm-57.2 4.5c-1.8.4-3.4-1.2-3-3 .2-.9.9-1.6 1.8-1.8 1.8-.4 3.4 1.2 3 3-.2.9-.9 1.6-1.8 1.8zm.2 54.7c-1.8.4-3.4-1.2-3-3 .2-.9.9-1.6 1.8-1.8 1.8-.4 3.4 1.2 3 3-.2.9-.9 1.6-1.8 1.8zm57.7-.3c-1.8.4-3.4-1.2-3-3 .2-.9.9-1.6 1.8-1.8 1.8-.4 3.4 1.2 3 3-.2.9-.9 1.6-1.8 1.8z"></path><circle cx="79.4" cy="78.9" r="1.3"></circle></g><!----></svg>