<svg data-v-fde0c5aa="" xmlns="http://www.w3.org/2000/svg" viewBox="0 0 300 300" class="icon"><!----><defs data-v-fde0c5aa=""><!----></defs><rect data-v-fde0c5aa="" fill="transparent" x="0" y="0" width="300px" height="300px" class="logo-background-square"></rect><!----><defs data-v-fde0c5aa=""><linearGradient data-v-fde0c5aa="" gradientTransform="rotate(25)" id="a4b89e83-e499-47e9-aa1e-41e80d6ef1f9" x1="0%" y1="0%" x2="100%" y2="0%"><stop data-v-fde0c5aa="" offset="0%" stop-color="#32142D" stop-opacity="1"></stop><stop data-v-fde0c5aa="" offset="100%" stop-color="#32142D" stop-opacity="1"></stop></linearGradient></defs><g data-v-fde0c5aa="" id="ab7fcb7d-e5dd-4b79-bdfd-3077410db9cf" fill="url(#a4b89e83-e499-47e9-aa1e-41e80d6ef1f9)" stroke="none" transform="matrix(2.336830981578188,0,0,2.336830981578188,31.28897454723446,32.223708277011156)"><path d="M22.3 76.7c-1.8-.4-3.4 1.2-3 3 .2.9.9 1.6 1.8 1.8 1.8.4 3.4-1.2 3-3-.2-.9-.9-1.6-1.8-1.8zm-.6 3.7c-.7 0-1.3-.6-1.3-1.3s.6-1.3 1.3-1.3 1.3.6 1.3 1.3-.6 1.3-1.3 1.3zM22.1 22c-1.8-.4-3.4 1.2-3 3 .2.9.9 1.6 1.8 1.8 1.8.4 3.4-1.2 3-3-.2-.9-.9-1.6-1.8-1.8zm-.6 3.7c-.7 0-1.3-.6-1.3-1.3s.6-1.3 1.3-1.3 1.3.6 1.3 1.3-.6 1.3-1.3 1.3zM79.3 27c1.8.4 3.4-1.2 3-3-.2-.9-.9-1.6-1.8-1.8-1.8-.4-3.4 1.2-3 3 .2.9.9 1.6 1.8 1.8zm.6-3.6c.7 0 1.3.6 1.3 1.3 0 .7-.6 1.3-1.3 1.3s-1.3-.6-1.3-1.3c0-.7.6-1.3 1.3-1.3zM80 76.5c-1.8-.4-3.4 1.2-3 3 .2.9.9 1.6 1.8 1.8 1.8.4 3.4-1.2 3-3-.2-.9-.9-1.6-1.8-1.8zm-.6 3.6c-.7 0-1.3-.6-1.3-1.3s.6-1.3 1.3-1.3 1.3.6 1.3 1.3-.6 1.3-1.3 1.3z"></path><circle cx="79.9" cy="24.6" r="1.3"></circle><circle cx="21.5" cy="24.4" r="1.3"></circle><circle cx="21.7" cy="79.1" r="1.3"></circle><path d="M50.8 40.599999999999994h-.3c-5.8 0-16.6-9.4-20.9-13.4-1-.9-1.8-1.9-2.2-3.2-.5-1.2-1.2-2-1.8-2.6 1-1.3 2.6-2.9 5.1-4.5 5.9-3.8 9.4-7.8 10.5-9.9 1.2-2.1 1.1-3.1-1-3.2-2.1-.1-6.8 3.6-6.8 3.6s-6.3 5.3-10.5 12.5c-1.2-.2-2.9-.2-4.3 1-2.3 1.9-1.8 4.8-1 6.2-.7.6-1.5 1.2-2.5 1.8C9.1 33 5.7 37 4.5 39c-1.2 2.1-1.1 3.1 1 3.2 2.1.1 6.8-3.6 6.8-3.6s4.2-3.6 8.1-8.8c.8.4 2 1 3.5 1.7.4.2.7.4 1.1.6 3.1 2.6 6.9 8.6 9.7 13.5 2.2 3.8 2.2 8.6 0 12.4-2.8 5-6.8 11.3-9.9 13.9-.3.3-.7.5-1 .6-.7.3-1.2.6-1.7.8-4.2-6.4-9.6-11-9.6-11s-4.7-3.7-6.8-3.6c-2.1.1-2.2 1.1-1 3.2C5.9 64 9.3 68 15.2 71.8c1.7 1.1 3 2.2 4 3.2-.6.4-1 .7-1.3 1.1-.9 1-2.1 4.6.6 6.8 1.9 1.6 4.1 1.2 5.3.8.3-.1.6-.2.8-.4 4.1 5.9 8.9 10 8.9 10s4.7 3.7 6.8 3.6 2.2-1.1 1-3.2c-1.2-2.1-4.6-6.1-10.5-9.9-1.7-1.1-2.9-2.2-3.9-3.1.1-.2.2-.4.3-.7.5-1.3 1.3-2.4 2.3-3.3 4.3-4 15-13.4 20.9-13.4m-.1.1c5.8 0 17.1 9.4 21.5 13.4 1 .9 1.8 2.1 2.3 3.3.2.4.3.7.5 1-.9.9-2.1 1.9-3.6 2.8-5.9 3.8-9.4 7.8-10.5 9.9-1.2 2.1-1.1 3.1 1 3.2 2.1.1 6.8-3.6 6.8-3.6s4.8-4.1 8.8-9.9c.1.1.3.1.4.2 1.2.4 3.4.8 5.3-.8 2.7-2.2 1.5-5.8.6-6.8-.3-.3-.6-.6-1-.9 1-1.1 2.3-2.2 4.2-3.4C92.5 68 96 64 97.1 61.9c1.2-2.1 1.1-3.1-1-3.2-2.1-.1-6.8 3.6-6.8 3.6s-5.5 4.7-9.7 11.2c-.6-.3-1.3-.6-2.1-1-.4-.2-.7-.4-1.1-.6-3.1-2.6-6.9-8.6-9.7-13.5-2.2-3.8-2.2-8.6 0-12.4 2.8-5 6.8-11.3 9.9-13.9.3-.3.7-.5 1.1-.6 1.6-.7 2.7-1.2 3.5-1.7 3.9 5.3 8.1 8.8 8.1 8.8s4.7 3.7 6.8 3.6c2.1-.1 2.2-1.1 1-3.2-1.2-2.1-4.6-6.1-10.5-9.9-1-.6-1.8-1.3-2.5-1.9.7-1.5 1.2-4.3-1-6.2-1.4-1.2-3-1.2-4.2-1-4.4-7.1-10.7-12.4-10.7-12.4S63.5 3.9 61.4 4c-2.1.1-2.2 1.1-1 3.2 1.2 2.1 4.6 6.1 10.5 9.9 2.4 1.6 4 3.1 5.1 4.4-.6.5-1.3 1.4-1.8 2.5-.5 1.3-1.3 2.4-2.3 3.3-4.3 4-15.3 13.4-21.2 13.4m28.6-18.4c1.8-.4 3.4 1.2 3 3-.2.9-.9 1.6-1.8 1.8-1.8.4-3.4-1.2-3-3 .2-.9.9-1.6 1.8-1.8zm-57.2 4.5c-1.8.4-3.4-1.2-3-3 .2-.9.9-1.6 1.8-1.8 1.8-.4 3.4 1.2 3 3-.2.9-.9 1.6-1.8 1.8zm.2 54.7c-1.8.4-3.4-1.2-3-3 .2-.9.9-1.6 1.8-1.8 1.8-.4 3.4 1.2 3 3-.2.9-.9 1.6-1.8 1.8zm57.7-.3c-1.8.4-3.4-1.2-3-3 .2-.9.9-1.6 1.8-1.8 1.8-.4 3.4 1.2 3 3-.2.9-.9 1.6-1.8 1.8z"></path><circle cx="79.4" cy="78.9" r="1.3"></circle></g><!----></svg>